<svg width="145" height="90" viewBox="0 0 145 90" fill="none" xmlns="http://www.w3.org/2000/svg">
<g clip-path="url(#clip0_258_3777)">
<mask id="mask0_258_3777" style="mask-type:alpha" maskUnits="userSpaceOnUse" x="0" y="0" width="145" height="90">
<rect width="145" height="90" fill="url(#paint0_linear_258_3777)"/>
</mask>
<g mask="url(#mask0_258_3777)">
<path d="M19 23.874V-76.126H51V23.874C51 37.1288 61.7452 47.874 75 47.874H216.438C229.692 47.874 240.438 37.1288 240.438 23.874V-100C240.438 -130.928 265.51 -156 296.438 -156H411V-124H296.438C283.183 -124 272.438 -113.255 272.438 -100V23.874C272.438 54.802 247.365 79.874 216.438 79.874H75C44.0721 79.874 19 54.802 19 23.874Z" fill="url(#paint1_linear_258_3777)"/>
<path d="M69.9697 62.0488C71.6154 62.2635 73.2944 62.374 75 62.374H80.8936C81.7217 62.3742 82.3934 63.0458 82.3936 63.874C82.3936 64.7023 81.7218 65.3738 80.8936 65.374H75C73.1644 65.374 71.3559 65.2548 69.582 65.0234C68.7606 64.9163 68.1809 64.1633 68.2881 63.3418C68.3954 62.5205 69.1484 61.9417 69.9697 62.0488ZM104.466 62.374C105.294 62.374 105.966 63.0457 105.966 63.874C105.966 64.7025 105.294 65.374 104.466 65.374H92.6797C91.8513 65.374 91.1797 64.7025 91.1797 63.874C91.1799 63.0457 91.8514 62.374 92.6797 62.374H104.466ZM128.039 62.374C128.867 62.374 129.539 63.0457 129.539 63.874C129.539 64.7025 128.867 65.374 128.039 65.374H116.253C115.424 65.374 114.753 64.7025 114.753 63.874C114.753 63.0457 115.425 62.374 116.253 62.374H128.039ZM151.612 62.374C152.44 62.3742 153.112 63.0458 153.112 63.874C153.112 64.7024 152.441 65.3739 151.612 65.374H139.825C138.997 65.3738 138.325 64.7023 138.325 63.874C138.325 63.0459 138.997 62.3742 139.825 62.374H151.612ZM175.185 62.374C176.013 62.374 176.684 63.0457 176.685 63.874C176.685 64.7025 176.013 65.374 175.185 65.374H163.398C162.57 65.374 161.898 64.7024 161.898 63.874C161.899 63.0457 162.57 62.374 163.398 62.374H175.185ZM198.758 62.374C199.586 62.374 200.258 63.0457 200.258 63.874C200.258 64.7025 199.586 65.374 198.758 65.374H186.972C186.143 65.374 185.472 64.7025 185.472 63.874C185.472 63.0457 186.143 62.374 186.972 62.374H198.758ZM221.468 62.0488C222.289 61.9417 223.042 62.5205 223.149 63.3418C223.257 64.1631 222.678 64.916 221.856 65.0234C220.082 65.2549 218.273 65.374 216.438 65.374H210.544C209.716 65.3738 209.044 64.7023 209.044 63.874C209.044 63.0459 209.716 62.3742 210.544 62.374H216.438C218.143 62.374 219.822 62.2635 221.468 62.0488ZM49.459 54.6963C49.9637 54.0394 50.9056 53.9162 51.5625 54.4209C54.2121 56.457 57.1337 58.1555 60.2627 59.4531C61.0279 59.7705 61.3916 60.6488 61.0742 61.4141C60.7568 62.179 59.8793 62.5417 59.1143 62.2246C55.7396 60.8252 52.5896 58.9939 49.7344 56.7998C49.0776 56.295 48.9543 55.3531 49.459 54.6963ZM239.875 54.4209C240.532 53.9162 241.474 54.0394 241.979 54.6963C242.483 55.3531 242.36 56.295 241.703 56.7998C238.848 58.9939 235.698 60.8252 232.323 62.2246C231.558 62.5417 230.681 62.179 230.363 61.4141C230.046 60.6488 230.41 59.7704 231.175 59.4531C234.304 58.1555 237.225 56.457 239.875 54.4209ZM37.4609 37.7998C38.2261 37.4828 39.1036 37.8462 39.4209 38.6113C40.7185 41.7403 42.417 44.6619 44.4531 47.3115C44.9579 47.9684 44.8346 48.9102 44.1777 49.415C43.5209 49.9197 42.579 49.7965 42.0742 49.1396C39.8802 46.2846 38.0488 43.1352 36.6494 39.7607C36.3321 38.9955 36.6957 38.1171 37.4609 37.7998ZM252.017 38.6113C252.334 37.8462 253.211 37.4828 253.977 37.7998C254.742 38.1171 255.105 38.9955 254.788 39.7607C253.389 43.1352 251.557 46.2846 249.363 49.1396C248.859 49.7965 247.917 49.9197 247.26 49.415C246.603 48.9103 246.48 47.9684 246.984 47.3115C249.02 44.6619 250.719 41.7403 252.017 38.6113ZM33.5 23.874V17.624C33.5002 16.7958 34.1717 16.124 35 16.124C35.8283 16.124 36.4998 16.7958 36.5 17.624V23.874C36.5 25.5795 36.6106 27.2587 36.8252 28.9043C36.9323 29.7257 36.3536 30.4787 35.5322 30.5859C34.7108 30.6931 33.9578 30.1143 33.8506 29.293C33.6192 27.5189 33.5 25.7098 33.5 23.874ZM254.938 23.874V17.6807C254.938 16.8523 255.609 16.1807 256.438 16.1807C257.266 16.1807 257.938 16.8522 257.938 17.6807V23.874C257.938 25.7098 257.818 27.5189 257.587 29.293C257.48 30.1143 256.727 30.6931 255.905 30.5859C255.084 30.4787 254.505 29.7257 254.612 28.9043C254.827 27.2587 254.938 25.5795 254.938 23.874ZM254.938 5.29297V-7.09473C254.938 -7.92292 255.609 -8.59468 256.438 -8.59473C257.266 -8.59473 257.937 -7.92295 257.938 -7.09473V5.29297C257.938 6.1214 257.266 6.79297 256.438 6.79297C255.609 6.79292 254.938 6.12137 254.938 5.29297ZM33.5 5.12402V-7.37598C33.5002 -8.20425 34.1717 -8.87598 35 -8.87598C35.8283 -8.87598 36.4998 -8.20425 36.5 -7.37598V5.12402C36.5 5.95244 35.8284 6.62402 35 6.62402C34.1716 6.62402 33.5 5.95244 33.5 5.12402ZM254.938 -19.4814V-31.8691C254.938 -32.6975 255.609 -33.3691 256.438 -33.3691C257.266 -33.3691 257.938 -32.6976 257.938 -31.8691V-19.4814C257.937 -18.6531 257.266 -17.9814 256.438 -17.9814C255.609 -17.9815 254.938 -18.6532 254.938 -19.4814ZM33.5 -19.876V-32.376C33.5002 -33.2042 34.1717 -33.876 35 -33.876C35.8283 -33.876 36.4998 -33.2042 36.5 -32.376V-19.876C36.5 -19.0475 35.8284 -18.376 35 -18.376C34.1716 -18.376 33.5 -19.0475 33.5 -19.876ZM254.938 -44.2568V-56.6436C254.938 -57.472 255.609 -58.1435 256.438 -58.1436C257.266 -58.1436 257.938 -57.472 257.938 -56.6436V-44.2568C257.938 -43.4284 257.266 -42.7568 256.438 -42.7568C255.609 -42.7569 254.938 -43.4284 254.938 -44.2568ZM33.5 -44.876V-57.376C33.5002 -58.2042 34.1717 -58.876 35 -58.876C35.8283 -58.876 36.4998 -58.2042 36.5 -57.376V-44.876C36.5 -44.0476 35.8284 -43.376 35 -43.376C34.1716 -43.376 33.5 -44.0476 33.5 -44.876ZM254.938 -69.0312V-81.4189C254.938 -82.2473 255.609 -82.9189 256.438 -82.9189C257.266 -82.9189 257.937 -82.2473 257.938 -81.4189V-69.0312C257.937 -68.2029 257.266 -67.5312 256.438 -67.5312C255.609 -67.5313 254.938 -68.2029 254.938 -69.0312ZM33.5 -69.876V-76.126C33.5002 -76.9542 34.1717 -77.626 35 -77.626C35.8283 -77.626 36.4998 -76.9542 36.5 -76.126V-69.876C36.5 -69.0476 35.8284 -68.376 35 -68.376C34.1716 -68.376 33.5 -69.0476 33.5 -69.876ZM254.938 -93.8066V-100C254.938 -101.836 255.057 -103.644 255.288 -105.418C255.395 -106.239 256.148 -106.819 256.97 -106.712C257.791 -106.605 258.37 -105.852 258.263 -105.03C258.048 -103.385 257.938 -101.706 257.938 -100V-93.8066C257.938 -92.9782 257.266 -92.3066 256.438 -92.3066C255.609 -92.3067 254.938 -92.9782 254.938 -93.8066ZM263.513 -125.266C264.017 -125.922 264.958 -126.045 265.615 -125.541C266.272 -125.036 266.395 -124.094 265.891 -123.438C263.855 -120.788 262.156 -117.866 260.858 -114.737C260.541 -113.972 259.664 -113.609 258.898 -113.926C258.133 -114.243 257.77 -115.121 258.087 -115.886C259.486 -119.26 261.319 -122.41 263.513 -125.266ZM280.552 -138.351C281.317 -138.668 282.194 -138.304 282.512 -137.539C282.829 -136.774 282.465 -135.896 281.7 -135.579C278.571 -134.282 275.65 -132.583 273 -130.547C272.343 -130.042 271.401 -130.165 270.896 -130.822C270.392 -131.479 270.515 -132.421 271.172 -132.926C274.027 -135.12 277.177 -136.951 280.552 -138.351ZM302.166 -141.5C302.994 -141.5 303.666 -140.828 303.666 -140C303.666 -139.172 302.994 -138.5 302.166 -138.5H296.438C294.732 -138.5 293.053 -138.389 291.407 -138.175C290.586 -138.068 289.833 -138.646 289.726 -139.468C289.618 -140.289 290.198 -141.042 291.02 -141.149C292.793 -141.381 294.602 -141.5 296.438 -141.5H302.166ZM325.078 -141.5C325.907 -141.5 326.578 -140.828 326.578 -140C326.578 -139.172 325.907 -138.5 325.078 -138.5H313.622C312.794 -138.5 312.122 -139.172 312.122 -140C312.122 -140.828 312.794 -141.5 313.622 -141.5H325.078ZM347.99 -141.5C348.819 -141.5 349.49 -140.828 349.49 -140C349.49 -139.172 348.819 -138.5 347.99 -138.5H336.534C335.706 -138.5 335.034 -139.172 335.034 -140C335.034 -140.828 335.706 -141.5 336.534 -141.5H347.99ZM370.903 -141.5C371.732 -141.5 372.403 -140.828 372.403 -140C372.403 -139.172 371.732 -138.5 370.903 -138.5H359.447C358.619 -138.5 357.947 -139.172 357.947 -140C357.947 -140.828 358.619 -141.5 359.447 -141.5H370.903ZM393.815 -141.5C394.644 -141.5 395.315 -140.828 395.315 -140C395.315 -139.172 394.644 -138.5 393.815 -138.5H382.359C381.531 -138.5 380.859 -139.172 380.859 -140C380.859 -140.828 381.531 -141.5 382.359 -141.5H393.815ZM411 -141.5C411.828 -141.5 412.5 -140.828 412.5 -140C412.5 -139.172 411.828 -138.5 411 -138.5H405.271C404.443 -138.5 403.771 -139.172 403.771 -140C403.771 -140.828 404.443 -141.5 405.271 -141.5H411Z" fill="black" fill-opacity="0.25"/>
</g>
<g filter="url(#filter0_d_258_3777)">
<path d="M43.25 22C43.25 26.5563 39.5563 30.25 35 30.25C30.4437 30.25 26.75 26.5563 26.75 22C26.75 17.4437 30.4437 13.75 35 13.75C39.5563 13.75 43.25 17.4437 43.25 22Z" fill="#191919"/>
<path d="M43.25 22C43.25 17.4437 39.5563 13.75 35 13.75C30.4437 13.75 26.75 17.4437 26.75 22C26.75 26.5563 30.4437 30.25 35 30.25C39.5563 30.25 43.25 26.5563 43.25 22ZM46 22C46 28.0751 41.0751 33 35 33C28.9249 33 24 28.0751 24 22C24 15.9249 28.9249 11 35 11C41.0751 11 46 15.9249 46 22Z" fill="white"/>
</g>
<g filter="url(#filter1_dd_258_3777)">
<path d="M71.1015 20.7773C70.6863 18.1355 72.3881 15.6532 75.15 15.2191C77.7918 14.804 80.293 16.6258 80.7081 19.2676L83.52 37.1599C84.3297 36.0483 85.5562 35.2403 87.1173 34.995C89.519 34.6175 91.9258 35.8389 93.1249 37.9884C93.8969 36.6366 95.3447 35.6708 97.0259 35.4066C100.028 34.9348 102.927 36.9401 103.519 39.9233C104.449 38.7928 105.675 37.9848 107.236 37.7395C110.359 37.2488 113.416 39.4755 113.906 42.5976L116.02 56.0469C117.36 64.5728 111.471 72.5121 103.065 73.8331L92.7376 75.456C92.1372 75.5504 91.5368 75.6447 91.0376 75.6001C84.2186 76.0565 77.5471 73.5366 72.7352 68.7556L62.2775 58.5864C60.2756 56.8092 60.2841 53.7316 62.1814 51.7108C63.9775 49.8289 67.055 49.8374 69.057 51.6147L77.197 59.5641L71.1015 20.7773Z" fill="white"/>
<path d="M89.168 50.3116C89.0171 49.3509 87.9054 48.5412 86.9448 48.6922C85.864 48.862 85.1744 49.9548 85.3254 50.9155L87.137 62.4434C87.3069 63.5242 88.2796 64.2326 89.3603 64.0628C90.321 63.9118 91.1495 62.9203 90.9797 61.8395L89.168 50.3116Z" fill="#A7A7A7"/>
<path d="M94.6301 47.4844C93.5493 47.6543 92.8597 48.747 93.0107 49.7077L94.8223 61.2356C94.9922 62.3164 95.9649 63.0249 97.0456 62.855C98.0063 62.704 98.8348 61.7125 98.665 60.6317L96.8533 49.1038C96.7024 48.1431 95.5907 47.3334 94.6301 47.4844Z" fill="#A7A7A7"/>
<path d="M104.539 47.896C104.388 46.9354 103.276 46.1257 102.315 46.2766C101.235 46.4465 100.545 47.5393 100.696 48.4999L102.508 60.0279C102.677 61.1086 103.65 61.8171 104.731 61.6472C105.692 61.4963 106.52 60.5047 106.35 59.424L104.539 47.896Z" fill="#A7A7A7"/>
</g>
</g>
<defs>
<filter id="filter0_d_258_3777" x="12" y="1" width="46" height="46" filterUnits="userSpaceOnUse" color-interpolation-filters="sRGB">
<feFlood flood-opacity="0" result="BackgroundImageFix"/>
<feColorMatrix in="SourceAlpha" type="matrix" values="0 0 0 0 0 0 0 0 0 0 0 0 0 0 0 0 0 0 127 0" result="hardAlpha"/>
<feOffset dy="2"/>
<feGaussianBlur stdDeviation="6"/>
<feComposite in2="hardAlpha" operator="out"/>
<feColorMatrix type="matrix" values="0 0 0 0 0 0 0 0 0 0 0 0 0 0 0 0 0 0 0.25 0"/>
<feBlend mode="normal" in2="BackgroundImageFix" result="effect1_dropShadow_258_3777"/>
<feBlend mode="normal" in="SourceGraphic" in2="effect1_dropShadow_258_3777" result="shape"/>
</filter>
<filter id="filter1_dd_258_3777" x="48.7676" y="5.16016" width="79.4434" height="84.4932" filterUnits="userSpaceOnUse" color-interpolation-filters="sRGB">
<feFlood flood-opacity="0" result="BackgroundImageFix"/>
<feColorMatrix in="SourceAlpha" type="matrix" values="0 0 0 0 0 0 0 0 0 0 0 0 0 0 0 0 0 0 127 0" result="hardAlpha"/>
<feOffset dy="2.07155"/>
<feGaussianBlur stdDeviation="2.58944"/>
<feComposite in2="hardAlpha" operator="out"/>
<feColorMatrix type="matrix" values="0 0 0 0 0 0 0 0 0 0 0 0 0 0 0 0 0 0 0.08 0"/>
<feBlend mode="normal" in2="BackgroundImageFix" result="effect1_dropShadow_258_3777"/>
<feColorMatrix in="SourceAlpha" type="matrix" values="0 0 0 0 0 0 0 0 0 0 0 0 0 0 0 0 0 0 127 0" result="hardAlpha"/>
<feOffset dy="2"/>
<feGaussianBlur stdDeviation="6"/>
<feComposite in2="hardAlpha" operator="out"/>
<feColorMatrix type="matrix" values="0 0 0 0 0 0 0 0 0 0 0 0 0 0 0 0 0 0 0.25 0"/>
<feBlend mode="normal" in2="effect1_dropShadow_258_3777" result="effect2_dropShadow_258_3777"/>
<feBlend mode="normal" in="SourceGraphic" in2="effect2_dropShadow_258_3777" result="shape"/>
</filter>
<linearGradient id="paint0_linear_258_3777" x1="72.5" y1="0" x2="72.5" y2="17.5" gradientUnits="userSpaceOnUse">
<stop stop-opacity="0"/>
<stop offset="1"/>
</linearGradient>
<linearGradient id="paint1_linear_258_3777" x1="-101" y1="-6.12692" x2="411" y2="-6.12692" gradientUnits="userSpaceOnUse">
<stop stop-color="#78BE20"/>
<stop offset="0.2" stop-color="#78BE20"/>
<stop offset="0.2" stop-color="#00A3E0"/>
<stop offset="0.4" stop-color="#00A3E0"/>
<stop offset="0.4" stop-color="#FF7F32"/>
<stop offset="0.6" stop-color="#FF7F32"/>
<stop offset="0.6" stop-color="#E74973"/>
<stop offset="0.8" stop-color="#E74973"/>
<stop offset="0.8" stop-color="#FFC627"/>
<stop offset="1" stop-color="#FFC627"/>
</linearGradient>
<clipPath id="clip0_258_3777">
<rect width="145" height="90" fill="white"/>
</clipPath>
</defs>
</svg>
