<svg width="54" height="46" viewBox="0 0 54 46" fill="none" xmlns="http://www.w3.org/2000/svg">
<g filter="url(#filter0_d_401_5901)">
<path d="M8.0459 12.3525V36.4123L26.5768 31.6439V17.121L8.0459 12.3525Z" fill="url(#paint0_linear_401_5901)"/>
<path d="M26.5752 17.121V31.6439L45.1061 36.4123V12.3525L26.5752 17.121Z" fill="url(#paint1_linear_401_5901)"/>
<path d="M43.141 30.0628C44.3741 30.8954 45.1075 32.255 45.1077 33.7056H8.0459C8.04616 32.2549 8.78122 30.8953 10.0144 30.0628L26.5777 18.8809L43.141 30.0628Z" fill="url(#paint2_linear_401_5901)"/>
<path opacity="0.15" d="M26.8372 18.4979L43.3988 29.6797C44.1508 30.1875 44.7354 30.8756 45.1079 31.6616V33.7061H45.1073C45.107 32.2555 44.3731 30.8961 43.1401 30.0635L26.5766 18.8811L10.0144 30.0635L9.78828 30.2264C8.69765 31.0626 8.05301 32.3328 8.0459 33.6844V31.6603C8.41895 30.8747 9.00401 30.1871 9.75571 29.6797L26.3173 18.4979L26.5766 18.3223L26.8372 18.4979Z" fill="black"/>
<path d="M44.0636 12.3953L45.1077 11.4688C45.1077 12.9904 44.3722 14.4157 43.1388 15.2889L26.5768 27.0155L10.013 15.2889C8.78011 14.4157 8.0459 12.9901 8.0459 11.4688L9.08826 12.3953C9.305 13.2531 9.81797 14.0149 10.5487 14.5325L26.575 25.8791L42.6032 14.5325C43.3343 14.0148 43.8464 13.2528 44.0636 12.3953Z" fill="url(#paint3_radial_401_5901)"/>
<path opacity="0.25" d="M45.1079 13.6508C44.7372 14.4676 44.1564 15.1847 43.4064 15.7158L26.5766 27.6321L9.74485 15.7158C8.9962 15.1855 8.41626 14.4698 8.0459 13.6547V11.5367C8.05217 13.0506 8.785 14.4675 10.0125 15.337L26.5766 27.0636L43.1382 15.337C44.3714 14.4639 45.1072 13.039 45.1073 11.5176L45.1079 13.6508Z" fill="black"/>
<path d="M45.1077 11.4688C45.1077 12.9904 44.3722 14.4157 43.1388 15.2889L26.5768 27.0155L10.013 15.2889C8.78011 14.4157 8.0459 12.9901 8.0459 11.4688H45.1077Z" fill="url(#paint4_linear_401_5901)"/>
<path d="M43.7989 9C45.8849 9 47.5762 10.6913 47.5762 12.7773V13.6714C47.576 13.6764 47.5753 13.6812 47.5752 13.6833V31.6263L47.5762 31.6372V32.3976C47.5762 34.4836 45.8849 36.1749 43.7989 36.1749H9.35349C7.26745 36.1749 5.57617 34.4836 5.57617 32.3976V12.7773C5.57617 10.6913 7.26745 9 9.35349 9H43.7989ZM9.26636 11.9803C8.86486 12.0233 8.55248 12.3645 8.55248 12.7773V32.3976L8.55743 32.4857C8.60079 32.8868 8.94094 33.1996 9.35349 33.1996H43.7989C44.2114 33.1996 44.5505 32.8868 44.5939 32.4857L44.5999 32.3976V12.7773C44.5999 12.3648 44.288 12.0247 43.887 11.9813L43.7909 11.9763H9.36141L9.26636 11.9803Z" fill="white"/>
</g>
<defs>
<filter id="filter0_d_401_5901" x="0.000414371" y="4.81818" width="53.1515" height="38.5636" filterUnits="userSpaceOnUse" color-interpolation-filters="sRGB">
<feFlood flood-opacity="0" result="BackgroundImageFix"/>
<feColorMatrix in="SourceAlpha" type="matrix" values="0 0 0 0 0 0 0 0 0 0 0 0 0 0 0 0 0 0 127 0" result="hardAlpha"/>
<feOffset dy="1.39394"/>
<feGaussianBlur stdDeviation="2.78788"/>
<feComposite in2="hardAlpha" operator="out"/>
<feColorMatrix type="matrix" values="0 0 0 0 0 0 0 0 0 0 0 0 0 0 0 0 0 0 0.2 0"/>
<feBlend mode="normal" in2="BackgroundImageFix" result="effect1_dropShadow_401_5901"/>
<feBlend mode="normal" in="SourceGraphic" in2="effect1_dropShadow_401_5901" result="shape"/>
</filter>
<linearGradient id="paint0_linear_401_5901" x1="17.3114" y1="12.3525" x2="17.3114" y2="36.4123" gradientUnits="userSpaceOnUse">
<stop stop-color="#E3E3E3"/>
<stop offset="1" stop-color="#D1D1D1"/>
</linearGradient>
<linearGradient id="paint1_linear_401_5901" x1="35.8407" y1="12.3525" x2="35.8407" y2="36.4123" gradientUnits="userSpaceOnUse">
<stop stop-color="#E3E3E3"/>
<stop offset="1" stop-color="#D1D1D1"/>
</linearGradient>
<linearGradient id="paint2_linear_401_5901" x1="26.5768" y1="25.8472" x2="26.5768" y2="33.7056" gradientUnits="userSpaceOnUse">
<stop stop-color="#DCDCDC"/>
<stop offset="1" stop-color="#D0D0D0"/>
</linearGradient>
<radialGradient id="paint3_radial_401_5901" cx="0" cy="0" r="1" gradientUnits="userSpaceOnUse" gradientTransform="translate(26.5768 17.0769) rotate(90) scale(9.93865 76.4019)">
<stop stop-color="#C9CCD2" stop-opacity="0"/>
<stop offset="1" stop-color="#C9CCD2"/>
</radialGradient>
<linearGradient id="paint4_linear_401_5901" x1="26.5768" y1="11.4688" x2="26.5768" y2="27.0155" gradientUnits="userSpaceOnUse">
<stop stop-color="#F0F0F0"/>
<stop offset="1" stop-color="#D3D2D2"/>
</linearGradient>
</defs>
</svg>
