<svg width="66" height="61" viewBox="0 0 66 61" fill="none" xmlns="http://www.w3.org/2000/svg">
<g filter="url(#filter0_d_365_5293)">
<path d="M34.9375 10.1232C34.742 9.78192 34.4599 9.49832 34.1197 9.30109C33.7795 9.10387 33.3933 9 33 9C32.6068 9 32.2206 9.10387 31.8804 9.30109C31.5402 9.49832 31.2581 9.78192 31.0626 10.1232L11.2954 44.6566C11.1009 44.9962 10.999 45.381 11 45.7723C11.001 46.1637 11.1048 46.548 11.301 46.8866C11.4972 47.2252 11.7789 47.5063 12.1179 47.7017C12.4569 47.8971 12.8413 48 13.2326 48H52.7675C53.1587 47.9999 53.543 47.8969 53.882 47.7015C54.221 47.5061 54.5026 47.225 54.6988 46.8864C54.895 46.5479 54.9989 46.1637 55 45.7723C55.0011 45.381 54.8994 44.9962 54.7051 44.6566L34.9375 10.1232Z" fill="url(#paint0_linear_365_5293)"/>
<path d="M33 6C33.9217 6 34.8267 6.24385 35.624 6.70605C36.3217 7.11051 36.9151 7.66965 37.3594 8.33887L37.541 8.63184V8.63281L57.3086 43.166V43.167C57.7638 43.9626 58.0025 44.8637 58 45.7803C57.9975 46.6969 57.7545 47.5975 57.2949 48.3906C56.8353 49.1838 56.1751 49.8428 55.3809 50.3008C54.5866 50.7587 53.6855 50.9997 52.7686 51H13.2324C12.3154 51 11.4146 50.7587 10.6201 50.3008C9.82554 49.8428 9.16483 49.1841 8.70509 48.3906C8.24544 47.5973 8.00239 46.6971 8.00002 45.7803C7.99772 44.8634 8.23672 43.9617 8.6924 43.166L28.459 8.63281V8.63184C28.917 7.83223 29.5787 7.16828 30.376 6.70605L30.6797 6.54297C31.3997 6.18668 32.1935 6.00001 33 6ZM33 9C32.607 9.00001 32.2209 9.10374 31.8809 9.30078C31.5407 9.498 31.258 9.78179 31.0625 10.123L11.2949 44.6562C11.1004 44.9959 10.999 45.3811 11 45.7725C11.001 46.1638 11.1046 46.5481 11.3008 46.8867C11.497 47.2253 11.7792 47.5067 12.1182 47.7021C12.4146 47.8729 12.7459 47.9727 13.086 47.9951L13.2324 48H52.7676C53.1588 47.9999 53.5429 47.8966 53.8819 47.7012C54.1784 47.5302 54.4311 47.2939 54.6211 47.0107L54.6992 46.8867C54.8709 46.5905 54.9718 46.2592 54.9951 45.9189L55 45.7725C55.001 45.4301 54.9231 45.0927 54.7735 44.7861L54.7051 44.6562L34.9375 10.123C34.7421 9.78187 34.4602 9.49799 34.1201 9.30078C33.7799 9.10355 33.3932 9 33 9Z" fill="white"/>
<path d="M34.9375 10.1232C34.742 9.78192 34.4599 9.49832 34.1197 9.30109C33.7795 9.10387 33.3933 9 33 9C32.6068 9 32.2206 9.10387 31.8804 9.30109C31.5402 9.49832 31.2581 9.78192 31.0626 10.1232L11.2954 44.6566C11.1009 44.9962 10.999 45.381 11 45.7723C11.001 46.1637 11.1048 46.548 11.301 46.8866C11.4972 47.2252 11.7789 47.5063 12.1179 47.7017C12.4569 47.8971 12.8413 48 13.2326 48H52.7675C53.1587 47.9999 53.543 47.8969 53.882 47.7015C54.221 47.5061 54.5026 47.225 54.6988 46.8864C54.895 46.5479 54.9989 46.1637 55 45.7723C55.0011 45.381 54.8994 44.9962 54.7051 44.6566L34.9375 10.1232Z" fill="url(#paint1_linear_365_5293)"/>
<path d="M52.7676 47V48H13.2324V47H52.7676ZM33 9C33.3932 9 33.7799 9.10355 34.1201 9.30078C34.4602 9.49799 34.7421 9.78187 34.9375 10.123L54.7051 44.6562C54.8994 44.9959 55.0011 45.3811 55 45.7725L54.9951 45.9189C54.9718 46.2592 54.8709 46.5905 54.6992 46.8867L54.6211 47.0107C54.4311 47.2939 54.1783 47.5302 53.8818 47.7012C53.5429 47.8966 53.1588 47.9999 52.7676 48V47C52.9834 46.9999 53.1958 46.9428 53.3828 46.835C53.5698 46.7271 53.7257 46.5717 53.834 46.3848C53.9422 46.1978 53.9994 45.9856 54 45.7695C54.0004 45.6073 53.9693 45.447 53.9082 45.2979L53.8369 45.1533L34.0693 10.6201C33.9614 10.4317 33.8059 10.2749 33.6182 10.166C33.4304 10.0572 33.217 10 33 10C32.783 10 32.5696 10.0571 32.3818 10.166C32.241 10.2477 32.1187 10.3567 32.0205 10.4854L31.9307 10.6201L12.1631 45.1533C12.0557 45.3408 11.9995 45.5534 12 45.7695C12.0005 45.9857 12.0577 46.1987 12.166 46.3857C12.2743 46.5725 12.4302 46.7271 12.6172 46.835C12.8043 46.9428 13.0165 47 13.2324 47V48L13.0859 47.9951C12.7943 47.9759 12.5093 47.8996 12.2471 47.7705L12.1182 47.7021C11.8216 47.5312 11.5689 47.294 11.3789 47.0107L11.3008 46.8867C11.1292 46.5905 11.0281 46.2592 11.0049 45.9189L11 45.7725C10.999 45.3811 11.1004 44.9959 11.2949 44.6562L31.0625 10.123C31.2336 9.82437 31.4712 9.56999 31.7559 9.37891L31.8809 9.30078C32.2209 9.10374 32.607 9.00001 33 9Z" fill="#FFBC21"/>
<path d="M33.0447 36.0952C33.305 36.1025 33.564 36.0563 33.8058 35.9596C34.0476 35.8629 34.267 35.7178 34.4505 35.533C34.634 35.3483 34.7778 35.128 34.8729 34.8856C34.968 34.6432 35.0125 34.3839 35.0036 34.1236L35.9479 21.7059C35.994 21.2933 35.9526 20.8757 35.8264 20.4801C35.7003 20.0846 35.4922 19.7201 35.2158 19.4103C34.9393 19.1006 34.6007 18.8526 34.222 18.6824C33.8433 18.5123 33.433 18.4238 33.0179 18.4229C32.6027 18.4219 32.192 18.5084 31.8125 18.6768C31.433 18.8451 31.0932 19.0915 30.8153 19.4C30.5374 19.7084 30.3277 20.072 30.1996 20.4669C30.0716 20.8618 30.0283 21.2793 30.0724 21.6921L31.0523 34.1258C31.0454 34.3883 31.0923 34.6494 31.1903 34.893C31.2883 35.1366 31.4352 35.3575 31.6219 35.5421C31.8086 35.7267 32.0312 35.871 32.276 35.9661C32.5207 36.0613 32.7823 36.1052 33.0447 36.0952Z" fill="#212121"/>
<path d="M35.2768 38.1855C34.6339 37.6854 33.8425 37.4139 33.0279 37.4141C32.2134 37.4142 31.4221 37.6859 30.7793 38.1863C29.7389 39.2199 29.739 41.786 30.7789 42.8201C31.4221 43.3201 32.2136 43.5915 33.0283 43.5915C33.8429 43.5915 34.6344 43.3201 35.2776 42.8201C36.3181 41.784 36.3184 39.2217 35.2768 38.1855Z" fill="#212121"/>
</g>
<defs>
<filter id="filter0_d_365_5293" x="0" y="0" width="66" height="61" filterUnits="userSpaceOnUse" color-interpolation-filters="sRGB">
<feFlood flood-opacity="0" result="BackgroundImageFix"/>
<feColorMatrix in="SourceAlpha" type="matrix" values="0 0 0 0 0 0 0 0 0 0 0 0 0 0 0 0 0 0 127 0" result="hardAlpha"/>
<feOffset dy="2"/>
<feGaussianBlur stdDeviation="4"/>
<feComposite in2="hardAlpha" operator="out"/>
<feColorMatrix type="matrix" values="0 0 0 0 0 0 0 0 0 0 0 0 0 0 0 0 0 0 0.2 0"/>
<feBlend mode="normal" in2="BackgroundImageFix" result="effect1_dropShadow_365_5293"/>
<feBlend mode="normal" in="SourceGraphic" in2="effect1_dropShadow_365_5293" result="shape"/>
</filter>
<linearGradient id="paint0_linear_365_5293" x1="33" y1="9" x2="33" y2="48" gradientUnits="userSpaceOnUse">
<stop stop-color="#FFD62B"/>
<stop offset="1" stop-color="#FFC302"/>
</linearGradient>
<linearGradient id="paint1_linear_365_5293" x1="33" y1="9" x2="33" y2="48" gradientUnits="userSpaceOnUse">
<stop stop-color="#FFD62B"/>
<stop offset="1" stop-color="#FFC302"/>
</linearGradient>
</defs>
</svg>
